HIERARCHY
ROOT hip
{
	OFFSET 0.000000 0.000000 0.000000
	CHANNELS 6 Xposition Yposition Zposition Xrotation Zrotation Yrotation 
	JOINT abdomen
	{
		OFFSET 0.000000 3.422050 0.000000
		CHANNELS 3 Xrotation Zrotation Yrotation 
		JOINT chest
		{
			OFFSET 0.000000 8.486693 -0.684411
			CHANNELS 3 Xrotation Zrotation Yrotation 
			JOINT neck
			{
				OFFSET 0.000000 10.266162 -0.273764
				CHANNELS 3 Xrotation Zrotation Yrotation 
				JOINT head
				{
					OFFSET 0.000000 3.148285 0.000000
					CHANNELS 3 Xrotation Zrotation Yrotation 
					End Site
					{
						OFFSET 0.000000 3.148289 0.000000
					}
				}
			}
			JOINT lCollar
			{
				OFFSET 3.422053 6.707223 -0.821293
				CHANNELS 3 Yrotation Zrotation Xrotation 
				JOINT lShldr
				{
					OFFSET 3.285171 0.000000 0.000000
					CHANNELS 3 Zrotation Yrotation Xrotation 
					JOINT lForeArm
					{
						OFFSET 10.129278 0.000000 0.000000
						CHANNELS 3 Yrotation Zrotation Xrotation 
						JOINT lHand
						{
							OFFSET 8.486692 0.000000 0.000000
							CHANNELS 3 Zrotation Yrotation Xrotation 
							End Site
							{
								OFFSET 4.106464 0.000000 0.000000
							}
						}
					}
				}
			}
			JOINT rCollar
			{
				OFFSET -3.558935 6.707223 -0.821293
				CHANNELS 3 Yrotation Zrotation Xrotation 
				JOINT rShldr
				{
					OFFSET -3.148289 0.000000 0.000000
					CHANNELS 3 Zrotation Yrotation Xrotation 
					JOINT rForeArm
					{
						OFFSET -10.266159 0.000000 0.000000
						CHANNELS 3 Yrotation Zrotation Xrotation 
						JOINT rHand
						{
							OFFSET -8.349810 0.000000 0.000000
							CHANNELS 3 Zrotation Yrotation Xrotation 
							End Site
							{
								OFFSET -4.106464 0.000000 0.000000
							}
						}
					}
				}
			}
		}
	}
	JOINT lThigh
	{
		OFFSET 5.338403 -1.642589 1.368821
		CHANNELS 3 Xrotation Zrotation Yrotation 
		JOINT lShin
		{
			OFFSET -2.053232 -20.121670 0.000000
			CHANNELS 3 Xrotation Zrotation Yrotation 
			JOINT lFoot
			{
				OFFSET 0.000000 -19.300380 -1.231939
				CHANNELS 3 Xrotation Yrotation Zrotation 
				End Site
				{
					OFFSET 0.000000 -2.463878 4.653993
				}
			}
		}
	}
	JOINT rThigh
	{
		OFFSET -5.338403 -1.642589 1.368821
		CHANNELS 3 Xrotation Zrotation Yrotation 
		JOINT rShin
		{
			OFFSET 2.053232 -20.121670 0.000000
			CHANNELS 3 Xrotation Zrotation Yrotation 
			JOINT rFoot
			{
				OFFSET 0.000000 -19.300380 -1.231939
				CHANNELS 3 Xrotation Yrotation Zrotation 
				End Site
				{
					OFFSET 0.000000 -2.463878 4.653993
				}
			}
		}
	}
}
MOTION
Frames: 8
Frame Time: 0.033325
-0.315388 43.405350 13.936345 10.606555 -0.000809 -179.991272 11.363847 -0.250991 -0.151873 10.678236 0.362296 -0.541508 -21.514494 0.000000 0.000000 -36.191868 0.000000 0.000000 33.341572 -13.199189 21.663889 152.980438 -71.569862 153.582657 -68.857971 -12.819347 -4.712902 -4.591488 20.422577 -3.894200 -20.442421 11.895914 15.409771 -144.004898 74.300369 159.520279 40.502216 4.896737 -0.405883 7.740272 -2.673372 1.247826 -7.449592 11.181132 10.844836 40.844139 1.392637 -0.558115 -18.274012 5.910101 -15.804822 -7.546999 -10.148552 -10.902092 41.008419 -1.538349 0.554209 -18.133654 -6.134091 15.009558 
-0.315388 43.405350 14.208685 9.210405 -0.001407 -179.982529 12.030170 -0.250997 -0.152042 8.427135 0.362382 -0.541558 -21.028017 0.000000 0.000000 -35.381153 0.000000 0.000000 33.717358 -13.134402 21.839390 152.980438 -71.569862 153.582657 -69.514389 -13.032171 -4.869567 -4.542496 20.939350 -4.160952 -20.845608 11.924895 15.670766 -144.113602 74.321365 159.423889 41.551937 5.128488 -0.479486 7.715968 -3.398903 1.087266 -9.404854 11.167122 10.697218 40.844139 1.392637 -0.558115 -17.839405 5.988103 -15.709686 -9.481782 -10.138681 -10.788264 41.008419 -1.538349 0.554209 -17.709801 -6.190026 14.916865 
-0.315388 43.405350 14.481025 7.811936 -0.001792 -179.973755 12.696738 -0.251001 -0.152212 6.166301 0.362466 -0.541610 -20.541170 0.000000 0.000000 -34.568714 0.000000 0.000000 34.092884 -13.068495 22.014421 152.980438 -71.569862 153.582657 -70.172188 -13.243306 -5.028919 -4.495904 21.456484 -4.428243 -21.249039 11.952085 15.932033 -144.222595 74.342308 159.327209 42.603378 5.359079 -0.557446 7.693670 -4.124834 0.926806 -11.366160 11.148108 10.549714 40.844139 1.392637 -0.558115 -17.404789 6.066834 -15.615112 -11.422508 -10.124979 -10.674487 41.008419 -1.538349 0.554209 -17.285923 -6.246651 14.824567 
-0.315388 43.405350 14.753365 6.411563 -0.001963 -179.964951 13.363511 -0.251004 -0.152382 3.897438 0.362549 -0.541666 -20.053989 0.000000 0.000000 -33.754662 0.000000 0.000000 34.468136 -13.001462 22.188978 152.980438 -71.569862 153.582657 -70.831398 -13.452709 -5.190946 -4.451738 21.973942 -4.696108 -21.652678 11.977473 16.193546 -144.331863 74.363235 159.230270 43.656361 5.588386 -0.639741 7.673384 -4.851102 0.766409 -13.332357 11.124082 10.402588 40.844139 1.392637 -0.558115 -16.970177 6.146288 -15.521118 -13.368083 -10.107447 -10.560966 41.008419 -1.538349 0.554209 -16.862032 -6.303960 14.732671 
-0.315388 43.405350 15.025704 5.009700 -0.001919 -179.956146 14.030443 -0.251004 -0.152551 1.622293 0.362629 -0.541726 -19.566467 0.000000 0.000000 -32.939045 0.000000 0.000000 34.843109 -12.933313 22.363050 152.980438 -71.569862 153.582657 -71.491943 -13.660334 -5.355623 -4.410019 22.491680 -4.964582 -22.056503 12.001060 16.455286 -144.441391 74.384064 159.133057 44.710732 5.816288 -0.726344 7.655111 -5.577637 0.606038 -15.302298 11.095057 10.256110 40.844139 1.392637 -0.558115 -16.535582 6.226458 -15.427707 -15.317386 -10.086084 -10.447897 41.008419 -1.538349 0.554209 -16.438147 -6.361951 14.641185 
-0.315388 43.405350 15.298044 3.606766 -0.001658 -179.947327 14.697488 -0.251002 -0.152721 -0.657358 0.362708 -0.541789 -19.078642 0.000000 0.000000 -32.121956 0.000000 0.000000 35.217785 -12.864050 22.536617 152.980438 -71.569862 153.582657 -72.153809 -13.866138 -5.522929 -4.370771 23.009663 -5.233701 -22.460505 12.022846 16.717230 -144.551208 74.404900 159.035568 45.766357 6.042663 -0.817227 7.638858 -6.304375 0.445654 -17.274799 11.061057 10.110544 40.844139 1.392637 -0.558115 -16.101017 6.307337 -15.334888 -17.269283 -10.060909 -10.335480 41.008419 -1.538349 0.554209 -16.014273 -6.420618 14.550115 
-0.315388 43.405350 15.570383 2.203178 -0.001182 -179.938522 15.364598 -0.250999 -0.152891 -2.939725 0.362783 -0.541855 -18.590523 0.000000 0.000000 -31.303484 0.000000 0.000000 35.592152 -12.793680 22.709675 152.980438 -71.569862 153.582657 -72.816933 -14.070064 -5.692841 -4.334023 23.527853 -5.503503 -22.864655 12.042826 16.979359 -144.661301 74.425659 158.937790 46.823063 6.267394 -0.912354 7.624630 -7.031248 0.285219 -19.248674 11.022120 9.966144 40.844139 1.392637 -0.558115 -15.666495 6.388917 -15.242672 -19.222637 -10.031951 -10.223911 41.008419 -1.538349 0.554209 -15.590419 -6.479953 14.459468 
-0.315388 43.405350 15.842724 0.799362 -0.000490 -179.929718 16.031734 -0.250993 -0.153060 -5.222998 0.362857 -0.541924 -18.102129 0.000000 0.000000 -30.483692 0.000000 0.000000 35.966190 -12.722214 22.882214 152.980438 -71.569862 153.582657 -73.481300 -14.272078 -5.865335 -4.299799 24.046213 -5.774028 -23.268923 12.060995 17.241644 -144.771637 74.446350 158.839767 47.880703 6.490362 -1.011687 7.612431 -7.758188 0.124695 -21.222740 10.978315 9.823176 40.844139 1.392637 -0.558115 -15.232027 6.471190 -15.151062 -21.176306 -9.999256 -10.113391 41.008419 -1.538349 0.554209 -15.166608 -6.539955 14.369253 
